# xmcd CD database file
#
# Track frame offsets:
#	150
#	31701
#	49680
#	62629
#	83690
#	99244
#	123569
#	139677
#	155716
#	186417
#	208092
#
# Disc length: 3200 seconds
#
# Revision: 0
# Processed by: cddbd v1.5.1PL0 Copyright (c) Steve Scherf et al.
# Submitted via: CDex 1.51
#
DISCID=920c7e0b
DTITLE=DIPSWITCH RECORDS - ItoOT2ya
DYEAR=1900
DGENRE=未分類 (日本)
TTITLE0=CROSSRANGE
TTITLE1=NO FUTURE
TTITLE2=FLATOUT
TTITLE3=MOONLIGHT
TTITLE4=ROUTINELIFE
TTITLE5=LOVE THE DIP
TTITLE6=ELECTRO IDOL
TTITLE7=HITECH! -DIRTY MIX-
TTITLE8=EXPLOSION
TTITLE9=RAVE'O LUTION 2K2
TTITLE10=QUERY
EXTD=
EXTT0=
EXTT1=
EXTT2=
EXTT3=
EXTT4=
EXTT5=
EXTT6=
EXTT7=
EXTT8=
EXTT9=
EXTT10=
PLAYORDER=
